<svg xmlns="http://www.w3.org/2000/svg" viewBox="0 0 236.24 194.64"><defs><style>.cls-1{isolation:isolate;}.cls-2,.cls-9{fill:none;}.cls-2{stroke:#f4f2f2;stroke-linecap:round;stroke-linejoin:round;stroke-width:3.27px;stroke-dasharray:5 9 5 9;}.cls-3{mix-blend-mode:multiply;}.cls-4{fill:#e3e3e3;}.cls-5{fill:#829836;}.cls-6,.cls-8{fill:#b2d234;}.cls-7{fill:#fff;}.cls-8{font-size:20.12px;font-family:DBHeavent-BoldCond, DB Heavent;font-weight:700;}.cls-9{stroke:#fff;stroke-miterlimit:10;stroke-width:2.5px;}</style></defs><title>ico</title><g class="cls-1"><g id="Layer_1" data-name="Layer 1"><path class="cls-2" d="M52.3,176.81c-24.59.86-42.75-5.12-48.66-18.14-11.82-26,29.86-70.42,93.08-99.1S220.78,28.76,232.6,54.81c6.1,13.44-2,31.76-20,50.28"/><g class="cls-3"><rect class="cls-4" x="34.03" y="25.52" width="169.13" height="169.13" rx="71.31" ry="71.31"/></g><rect class="cls-5" x="34.03" y="14.94" width="169.13" height="169.13" rx="71.31" ry="71.31"/><rect class="cls-6" x="33.41" width="169.86" height="169.86" rx="71.31" ry="71.31"/><path class="cls-7" d="M119.51,128.18c-2.56-.47-5.12-.93-7.68-1.43a6.88,6.88,0,0,1-3.91-2.4,7.64,7.64,0,0,1-1.71-4.79,2.56,2.56,0,0,1,.09-.59c.89-4.79,1.76-9.58,2.67-14.36a6.53,6.53,0,0,1,2.36-3.8,7.29,7.29,0,0,1,5.58-1.61c5.12.93,10.24,1.86,15.36,2.85a6.75,6.75,0,0,1,4.83,3.77,7.16,7.16,0,0,1,.61,4.78c-.88,4.48-1.68,9-2.52,13.48a6.61,6.61,0,0,1-2.44,3.94,7.06,7.06,0,0,1-6.14,1.47C124.24,129,121.87,128.61,119.51,128.18Zm8.13-24.4a1.41,1.41,0,0,0-.2-.08c-3.55-.66-7.1-1.35-10.67-2a4.63,4.63,0,0,0-3.45.79c-1.87,1.29-2.15,3.33-2.38,5.39l6.67,1.24c1.33.25,1.65.71,1.41,2l-2.44,13.19-.12.67,7,1.3Zm7.13,8.56c1.66-5.33-1.09-7.79-4.49-8l-1.29,7,5.18,1Zm-25.64,5.34a5,5,0,0,0,4.72,6.82l1.07-5.75Zm18,3.34-1.08,5.8c3.79,1.16,6.73-1.28,6.83-4.73Zm-17.58-6,5.79,1.07.86-4.62-5.79-1.07Zm18.93-1.29-.86,4.64,5.78,1.07.86-4.64Z"/><path class="cls-7" d="M96.13,132.95a3.93,3.93,0,0,1-2-2.26,5.45,5.45,0,0,1-.17-2.24Q99.53,98,105.21,67.52a3.85,3.85,0,0,1,3.46-3.32.83.83,0,0,0,.23-.09l27.16,5A11,11,0,0,1,139.7,73q5.41,7.93,10.88,15.83a6.79,6.79,0,0,1,1.14,5.36q-4,21.3-7.89,42.61c-.42,2.29-1.39,3.93-3.87,4.28Zm6.38-34.42-5.6,30.18c-.2,1.1.05,1.48,1.16,1.68l41,7.6c1.1.2,1.47-.05,1.68-1.16q4.05-21.84,8.11-43.68a2.85,2.85,0,0,0-.49-2.23q-6.17-9-12.35-18a2.84,2.84,0,0,0-1.91-1.25q-12.17-2.23-24.33-4.5c-1.1-.2-1.47.05-1.68,1.16Z"/><path class="cls-7" d="M119.51,128.18c-2.56-.47-5.12-.93-7.68-1.43a6.88,6.88,0,0,1-3.91-2.4,7.64,7.64,0,0,1-1.71-4.79,2.56,2.56,0,0,1,.09-.59c.89-4.79,1.76-9.58,2.67-14.36a6.53,6.53,0,0,1,2.36-3.8,7.29,7.29,0,0,1,5.58-1.61c5.12.93,10.24,1.86,15.36,2.85a6.75,6.75,0,0,1,4.83,3.77,7.16,7.16,0,0,1,.61,4.78c-.88,4.48-1.68,9-2.52,13.48a6.61,6.61,0,0,1-2.44,3.94,7.06,7.06,0,0,1-6.14,1.47C124.24,129,121.87,128.61,119.51,128.18Zm8.13-24.4a1.41,1.41,0,0,0-.2-.08c-3.55-.66-7.1-1.35-10.67-2a4.63,4.63,0,0,0-3.45.79c-1.87,1.29-2.15,3.33-2.38,5.39l6.67,1.24c1.33.25,1.65.71,1.41,2l-2.44,13.19-.12.67,7,1.3Zm7.13,8.56c1.66-5.33-1.09-7.79-4.49-8l-1.29,7,5.18,1Zm-25.64,5.34a5,5,0,0,0,4.72,6.82l1.07-5.75Zm18,3.34-1.08,5.8c3.79,1.16,6.73-1.28,6.83-4.73Zm-17.58-6,5.79,1.07.86-4.62-5.79-1.07Zm18.93-1.29-.86,4.64,5.78,1.07.86-4.64Z"/><circle class="cls-7" cx="91.25" cy="70.04" r="22.5"/><text class="cls-8" transform="translate(76.89 75.58)">NEW</text><path class="cls-9" d="M145,67.69a12.5,12.5,0,0,1,4.45,8.83.63.63,0,0,0,1.21.25,12.5,12.5,0,0,1,7.57-6.37.84.84,0,0,0,.29-1.39A12.5,12.5,0,0,1,154,60.17a.63.63,0,0,0-1.21-.25,12.5,12.5,0,0,1-7.57,6.37A.84.84,0,0,0,145,67.69Z"/><path class="cls-9" d="M75.86,107.34a12.5,12.5,0,0,1,4.34,8.89.63.63,0,0,0,1.21.26A12.5,12.5,0,0,1,89,110.22a.84.84,0,0,0,.3-1.39A12.5,12.5,0,0,1,85,99.94a.63.63,0,0,0-1.21-.26,12.5,12.5,0,0,1-7.65,6.27A.84.84,0,0,0,75.86,107.34Z"/><path class="cls-9" d="M155.59,86.19a17,17,0,0,1,6.06,12,.85.85,0,0,0,1.65.34,17,17,0,0,1,10.32-8.68A1.15,1.15,0,0,0,174,88,17,17,0,0,1,168,76a.85.85,0,0,0-1.65-.34A17,17,0,0,1,156,84.29,1.15,1.15,0,0,0,155.59,86.19Z"/></g></g></svg>