<?xml version="1.0" encoding="utf-8"?>
<!-- Generator: Adobe Illustrator 21.1.0, SVG Export Plug-In . SVG Version: 6.00 Build 0)  -->
<svg version="1.1" id="Layer_1" xmlns="http://www.w3.org/2000/svg" xmlns:xlink="http://www.w3.org/1999/xlink" x="0px" y="0px"
	 viewBox="0 0 39.6 26" style="enable-background:new 0 0 39.6 26;" xml:space="preserve">
<style type="text/css">
	.st0{fill:#41479B;}
	.st1{fill:#F5F5F5;}
	.st2{fill:#FF4B55;}
</style>
<title>ico</title>
<g>
	<defs>
		<rect id="SVGID_1_" x="15.7" y="-272.4" width="162" height="48.7"/>
	</defs>
	<clipPath id="SVGID_2_">
		<use xlink:href="#SVGID_1_"  style="overflow:visible;"/>
	</clipPath>
</g>
<path class="st0" d="M38.9,26H0.7C0.3,26,0,25.6,0,25.3c0,0,0,0,0,0V0.7C0,0.3,0.3,0,0.7,0h38.2c0.4,0,0.7,0.3,0.7,0.7c0,0,0,0,0,0
	v24.6C39.6,25.6,39.3,25.9,38.9,26C38.9,25.9,38.9,26,38.9,26z"/>
<path class="st1" d="M39.6,0.7c0-0.4-0.3-0.7-0.7-0.7c0,0,0,0,0,0h-3.1L23.2,8.3V0h-6.8v8.3L3.7,0H0.7C0.3,0,0,0.3,0,0.7v1.8
	l10.9,7.1H0v6.8h10.9L0,23.5v1.8C0,25.6,0.3,26,0.7,26c0,0,0,0,0,0h3.1l12.6-8.3V26h6.8v-8.3L35.9,26h3c0.4,0,0.7-0.3,0.7-0.7l0,0
	v-1.8l-10.8-7.1h10.8V9.6H28.8l10.8-7.1V0.7z"/>
<polygon class="st2" points="39.6,10.9 21.9,10.9 21.9,0 17.8,0 17.8,10.9 0,10.9 0,15 17.8,15 17.8,26 21.9,26 21.9,15 39.6,15 "/>
<path class="st2" d="M13.8,16.4L0,25.4c0,0.3,0.3,0.6,0.7,0.6h0.9l14.7-9.6H13.8z"/>
<path class="st2" d="M26.8,16.4h-2.5L39,25.9c0.3,0,0.6-0.3,0.6-0.7v-0.6L26.8,16.4z"/>
<path class="st2" d="M0,1.4l12.5,8.1H15L0.4,0.1C0.2,0.2,0,0.4,0,0.7V1.4z"/>
<path class="st2" d="M25.7,9.6l13.9-9C39.5,0.2,39.2,0,38.9,0h-1L23.2,9.6H25.7z"/>
</svg>
