<svg xmlns="http://www.w3.org/2000/svg" viewBox="0 0 236.24 194.64"><defs><style>.cls-1{isolation:isolate;}.cls-10,.cls-2,.cls-7,.cls-9{fill:none;}.cls-2{stroke:#f4f2f2;stroke-width:3.27px;stroke-dasharray:5 9 5 9;}.cls-10,.cls-2{stroke-linecap:round;stroke-linejoin:round;}.cls-3{mix-blend-mode:multiply;}.cls-4{fill:#e3e3e3;}.cls-5{fill:#829836;}.cls-6{fill:#b2d234;}.cls-10,.cls-7,.cls-9{stroke:#fff;}.cls-7,.cls-9{stroke-miterlimit:10;}.cls-7{stroke-width:3px;}.cls-8{fill:#fff;}.cls-9{stroke-width:2.5px;}.cls-10{stroke-width:2.54px;}</style></defs><title>ico</title><g class="cls-1"><g id="Layer_1" data-name="Layer 1"><path class="cls-2" d="M52.3,176.81c-24.59.86-42.75-5.12-48.66-18.14-11.82-26,29.86-70.42,93.08-99.1S220.78,28.76,232.6,54.81c6.1,13.44-2,31.76-20,50.28"/><g class="cls-3"><rect class="cls-4" x="34.03" y="25.52" width="169.13" height="169.13" rx="71.31" ry="71.31"/></g><rect class="cls-5" x="34.03" y="14.94" width="169.13" height="169.13" rx="71.31" ry="71.31"/><rect class="cls-6" x="33.41" width="169.86" height="169.86" rx="71.31" ry="71.31"/><rect class="cls-7" x="88.61" y="46.04" width="54" height="88" rx="5.5" ry="5.5"/><line class="cls-7" x1="88.11" y1="57.54" x2="142.11" y2="57.54"/><line class="cls-7" x1="88.11" y1="122.04" x2="142.11" y2="122.04"/><circle class="cls-8" cx="115.61" cy="128.04" r="3.5"/><path class="cls-9" d="M137.21,30.79a12.5,12.5,0,0,1,6.13,7.76.63.63,0,0,0,1.24,0,12.5,12.5,0,0,1,6.13-7.76.84.84,0,0,0,0-1.42,12.5,12.5,0,0,1-6.13-7.76.63.63,0,0,0-1.24,0,12.5,12.5,0,0,1-6.13,7.76A.84.84,0,0,0,137.21,30.79Z"/><path class="cls-9" d="M151.36,46.78a17,17,0,0,1,8.36,10.58.85.85,0,0,0,1.69,0,17,17,0,0,1,8.36-10.58,1.15,1.15,0,0,0,0-1.94,17,17,0,0,1-8.36-10.58.85.85,0,0,0-1.69,0,17,17,0,0,1-8.36,10.58A1.15,1.15,0,0,0,151.36,46.78Z"/><line class="cls-10" x1="118.79" y1="67.96" x2="105.57" y2="79.18"/><line class="cls-10" x1="126.84" y1="75.71" x2="109.74" y2="89.92"/></g></g></svg>