<?xml version="1.0" encoding="utf-8"?>
<!-- Generator: Adobe Illustrator 21.1.0, SVG Export Plug-In . SVG Version: 6.00 Build 0)  -->
<svg version="1.1" id="Layer_1" xmlns="http://www.w3.org/2000/svg" xmlns:xlink="http://www.w3.org/1999/xlink" x="0px" y="0px"
	 viewBox="0 0 39.6 25.9" style="enable-background:new 0 0 39.6 25.9;" xml:space="preserve">
<style type="text/css">
	.st0{fill:#F5F5F5;}
	.st1{fill:#FF4B55;}
	.st2{fill:#41479B;}
</style>
<title>ico</title>
<path class="st0" d="M38.9,25.9H0.7c-0.4,0-0.7-0.3-0.7-0.7c0,0,0,0,0,0V0.7C0,0.3,0.3,0,0.7,0h38.2c0.4,0,0.7,0.3,0.7,0.7
	c0,0,0,0,0,0v24.6C39.6,25.6,39.3,25.9,38.9,25.9C38.9,25.9,38.9,25.9,38.9,25.9z"/>
<path class="st1" d="M38.9,25.9H0.7c-0.4,0-0.7-0.3-0.7-0.7c0,0,0,0,0,0v-3.4h39.6v3.4C39.6,25.6,39.3,25.9,38.9,25.9L38.9,25.9z"/>
<path class="st1" d="M0.7,0h38.2c0.4,0,0.7,0.3,0.7,0.7c0,0,0,0,0,0v3.4H0V0.7C0,0.3,0.3,0,0.7,0z"/>
<rect y="8.2" class="st2" width="39.6" height="9.6"/>
</svg>
