<svg xmlns="http://www.w3.org/2000/svg" viewBox="0 0 236.24 194.64"><defs><style>.cls-1{isolation:isolate;}.cls-2{fill:none;stroke:#f4f2f2;stroke-linecap:round;stroke-linejoin:round;stroke-width:3.27px;stroke-dasharray:5 9 5 9;}.cls-3{mix-blend-mode:multiply;}.cls-4{fill:#e3e3e3;}.cls-5{fill:#829836;}.cls-6{fill:#b2d234;}.cls-7{fill:#fff;}</style></defs><title>ico</title><g class="cls-1"><g id="Layer_1" data-name="Layer 1"><path class="cls-2" d="M52.3,176.81c-24.59.86-42.75-5.12-48.66-18.14-11.82-26,29.86-70.42,93.08-99.1S220.78,28.76,232.6,54.81c6.1,13.44-2,31.76-20,50.28"/><g class="cls-3"><rect class="cls-4" x="34.03" y="25.52" width="169.13" height="169.13" rx="71.31" ry="71.31"/></g><rect class="cls-5" x="34.03" y="14.94" width="169.13" height="169.13" rx="71.31" ry="71.31"/><rect class="cls-6" x="33.41" width="169.86" height="169.86" rx="71.31" ry="71.31"/><path class="cls-7" d="M63.21,50.53A47.49,47.49,0,0,0,66.85,55C79,66.94,87.37,53.81,87.49,53.72c-6.85,3.69-14.66,4.4-24.28-3.19"/><path class="cls-7" d="M57.35,44.84c4.58,3.84,18.86,18.21,35.07,4.54A34.7,34.7,0,0,1,102,43.11C91.86,41,78.38,57.83,57.35,44.84"/><path class="cls-7" d="M91.3,63.16,95.37,54a1.59,1.59,0,0,1,1.5-1H97a1.55,1.55,0,0,1,1.48,1l4.07,9.18a1.22,1.22,0,0,1-1.09,1.75,1.31,1.31,0,0,1-1.23-.89l-.78-1.83H94.33l-.81,1.91a1.27,1.27,0,0,1-1.18.8,1.18,1.18,0,0,1-1.18-1.2,1.34,1.34,0,0,1,.15-.55m7.21-3.24L96.9,56.08l-1.62,3.84Z"/><path class="cls-7" d="M110.41,63.57a1.19,1.19,0,0,1,.72-2.15,1.25,1.25,0,0,1,.73.24,4.94,4.94,0,0,0,3,1c1,0,1.68-.41,1.68-1.1v0c0-.65-.39-1-2.35-1.48-2.35-.6-3.87-1.25-3.87-3.57v0c0-2.11,1.7-3.52,4.08-3.52a6.81,6.81,0,0,1,3.7,1,1.19,1.19,0,0,1-.64,2.2,1.24,1.24,0,0,1-.65-.18,4.86,4.86,0,0,0-2.45-.78c-1,0-1.49.45-1.49,1v0c0,.77.5,1,2.51,1.53,2.37.61,3.7,1.47,3.7,3.5v0c0,2.31-1.77,3.61-4.28,3.61a7.5,7.5,0,0,1-4.38-1.4"/><path class="cls-7" d="M105,54.33a1.29,1.29,0,1,1,2.57,0v9.29a1.28,1.28,0,1,1-2.57,0Z"/><path class="cls-7" d="M111,69.14a8,8,0,1,0,8,8A8,8,0,0,0,111,69.14Zm3.84,5.25a1,1,0,0,1-.48.83,1,1,0,0,1-1.18-.1,2.77,2.77,0,1,0,0,3.78,1.16,1.16,0,0,1,.49-.23,1,1,0,0,1,1,.37,1,1,0,0,1,0,1.24,4.78,4.78,0,1,1,0-6.55A1,1,0,0,1,114.89,74.38Z"/><path class="cls-7" d="M95,69.14a8,8,0,1,0,8,8A8,8,0,0,0,95,69.14Zm3.49,11.77a.82.82,0,0,1-.83.87H93.33C92.17,81.84,92,81,92,81a1.44,1.44,0,0,1,.47-1.27l1.84-1.83c1.13-1.13,1.88-1.88,1.88-2.81,0-.76-.44-1.06-1.56-1.06a11.18,11.18,0,0,0-1.26.09l-.23,0c-1.11.2-1.2-.63-1.2-.63-.17-1,1.1-1.16,1.1-1.16a12,12,0,0,1,2-.2c2.08,0,3.09.89,3.09,2.7,0,1.48-.65,2.31-2,3.64L94.55,80h3.13a.8.8,0,0,1,.8.88Z"/><path class="cls-7" d="M78.95,69.14a8,8,0,1,0,8,8A8,8,0,0,0,78.95,69.14Zm1.2,11.72a1,1,0,0,1-2.09,0V73.17a1,1,0,0,1,2.09,0Z"/><path class="cls-7" d="M85.21,102.38a76.08,76.08,0,0,0,5.84,7.24c19.48,19.08,32.92-2,33.11-2.13-11,5.92-23.52,7.06-39-5.11"/><path class="cls-7" d="M75.81,93.25c7.34,6.16,30.26,29.21,56.24,7.28,5.2-4.38,9.69-7.75,15.45-10.06-16.33-3.41-37.95,23.61-71.69,2.78"/><path class="cls-7" d="M130.28,122.63l6.52-14.73a2.55,2.55,0,0,1,2.4-1.63h.25a2.48,2.48,0,0,1,2.37,1.63l6.53,14.73a1.88,1.88,0,0,1,.2.82,1.94,1.94,0,0,1-1.94,2,2.09,2.09,0,0,1-2-1.42l-1.26-2.94h-8.24l-1.31,3.07a2,2,0,0,1-1.9,1.29,1.9,1.9,0,0,1-1.9-1.93,2.12,2.12,0,0,1,.24-.88m11.57-5.19-2.59-6.17-2.59,6.17Z"/><path class="cls-7" d="M160.93,123.3a1.91,1.91,0,0,1,1.15-3.45,2,2,0,0,1,1.18.38,7.94,7.94,0,0,0,4.79,1.68c1.68,0,2.69-.66,2.69-1.77v-.05c0-1-.63-1.57-3.77-2.38-3.77-1-6.21-2-6.21-5.72v0c0-3.39,2.73-5.64,6.56-5.64a10.91,10.91,0,0,1,5.93,1.65,1.91,1.91,0,0,1-1,3.53,2,2,0,0,1-1-.29,7.87,7.87,0,0,0-3.93-1.25c-1.57,0-2.4.71-2.4,1.63v0c0,1.24.8,1.63,4,2.46,3.8,1,5.93,2.36,5.93,5.61v.06c0,3.71-2.84,5.8-6.87,5.8a12,12,0,0,1-7-2.25"/><path class="cls-7" d="M152.24,108.47a2.06,2.06,0,0,1,4.12,0v14.91a2.06,2.06,0,1,1-4.12,0Z"/><path class="cls-7" d="M169.38,76.2a1.83,1.83,0,0,0-2.59,0l-7.34,7.3a19.21,19.21,0,0,0-32.34-20.75,1.83,1.83,0,0,0,.4,2.45l.12.09a1.83,1.83,0,0,0,2.54-.52,15.55,15.55,0,0,1,27,15.22l-2.37-5.4a1.83,1.83,0,1,0-3.35,1.47l5.2,11.84a1.83,1.83,0,0,0,3,.56l9.72-9.67A1.83,1.83,0,0,0,169.38,76.2Z"/></g></g></svg>