<svg xmlns="http://www.w3.org/2000/svg" viewBox="0 0 236.24 194.64"><defs><style>.cls-1{isolation:isolate;}.cls-2,.cls-9{fill:none;}.cls-2{stroke:#f4f2f2;stroke-linecap:round;stroke-linejoin:round;stroke-width:3.27px;stroke-dasharray:5 9 5 9;}.cls-3{mix-blend-mode:multiply;}.cls-4{fill:#e3e3e3;}.cls-5{fill:#829836;}.cls-6{fill:#b2d234;}.cls-7,.cls-8{fill:#fff;}.cls-8{fill-rule:evenodd;}.cls-9{stroke:#fff;stroke-miterlimit:10;stroke-width:3px;}</style></defs><title>ico</title><g class="cls-1"><g id="Layer_1" data-name="Layer 1"><path class="cls-2" d="M52.3,176.81c-24.59.86-42.75-5.12-48.66-18.14-11.82-26,29.86-70.42,93.08-99.1S220.78,28.76,232.6,54.81c6.1,13.44-2,31.76-20,50.28"/><g class="cls-3"><rect class="cls-4" x="34.03" y="25.52" width="169.13" height="169.13" rx="71.31" ry="71.31"/></g><rect class="cls-5" x="34.03" y="14.94" width="169.13" height="169.13" rx="71.31" ry="71.31"/><rect class="cls-6" x="33.41" width="169.86" height="169.86" rx="71.31" ry="71.31"/><path class="cls-7" d="M153.71,73.57a1.21,1.21,0,0,0-1.59.63l-2.71,6.28a12.69,12.69,0,0,0-24.93-4.78,1.21,1.21,0,0,0,.85,1.4l.1,0a1.21,1.21,0,0,0,1.43-.94,10.27,10.27,0,0,1,20.32,2.69l-2.78-2.73a1.21,1.21,0,0,0-1.69,1.73l6.1,6a1.21,1.21,0,0,0,2-.39l3.58-8.32A1.21,1.21,0,0,0,153.71,73.57Z"/><path class="cls-7" d="M87.11,69.21a29.36,29.36,0,0,0,1.49,3.26c5.44,9,12.48,2.42,12.56,2.38-4.67,1.16-9.46.38-14.05-5.64"/><path class="cls-7" d="M84.47,64.91c2.15,3,8.5,13.8,20.31,8.11a21.45,21.45,0,0,1,6.73-2.28c-5.77-2.84-16.43,5.18-27-5.83"/><path class="cls-7" d="M102,81.09l3.85-4.87a1,1,0,0,1,1.05-.38l.09,0a1,1,0,0,1,.73.84l1,6.12a.75.75,0,0,1-.92.88.81.81,0,0,1-.6-.72L107,81.77,104,81l-.78,1a.78.78,0,0,1-.83.3.73.73,0,0,1-.52-.9.83.83,0,0,1,.17-.3m4.82-.83-.38-2.55-1.56,2.05Z"/><path class="cls-7" d="M113.38,84.28a.74.74,0,0,1,.76-1.18.77.77,0,0,1,.4.26,3.05,3.05,0,0,0,1.63,1.09c.63.16,1.07,0,1.17-.4v0c.1-.39-.09-.65-1.18-1.25C114.85,82,114,81.43,114.4,80v0a2.26,2.26,0,0,1,3-1.48,4.21,4.21,0,0,1,2.06,1.19.74.74,0,0,1-.72,1.22.76.76,0,0,1-.36-.21,3,3,0,0,0-1.35-.85c-.59-.15-1,0-1.05.38v0c-.12.46.14.69,1.27,1.31,1.32.73,2,1.45,1.68,2.66v0c-.36,1.39-1.61,1.89-3.12,1.51a4.64,4.64,0,0,1-2.41-1.51"/><path class="cls-7" d="M111.55,77.91a.79.79,0,1,1,1.54.39l-1.43,5.57a.79.79,0,1,1-1.54-.39Z"/><path class="cls-7" d="M112.91,87.71a5,5,0,1,0,3.57,6A5,5,0,0,0,112.91,87.71Zm1.5,3.73a.62.62,0,0,1-.42.42.63.63,0,0,1-.69-.24,1.71,1.71,0,1,0-.58,2.26.72.72,0,0,1,.33-.06.59.59,0,0,1,.52.37.62.62,0,0,1-.18.75,3,3,0,1,1,1-3.92A.59.59,0,0,1,114.4,91.44Z"/><path class="cls-7" d="M103.29,85.24a5,5,0,1,0,3.57,6A5,5,0,0,0,103.29,85.24Zm.28,7.59a.51.51,0,0,1-.63.39l-2.59-.66c-.7-.14-.68-.68-.68-.68a.89.89,0,0,1,.48-.69l1.39-.81c.85-.5,1.42-.84,1.56-1.4s-.1-.7-.77-.87a6.91,6.91,0,0,0-.77-.14l-.14,0c-.69,0-.62-.56-.62-.56,0-.62.84-.52.84-.52a7.4,7.4,0,0,1,1.22.18c1.25.32,1.72,1,1.44,2.09-.23.89-.75,1.28-1.76,1.87l-1.16.64,1.88.48a.49.49,0,0,1,.34.65Z"/><path class="cls-8" d="M93.68,82.78a5,5,0,1,0,3.57,6A5,5,0,0,0,93.68,82.78ZM92.6,90a.65.65,0,0,1-1.25-.32l1.18-4.61a.65.65,0,0,1,1.25.32Z"/><circle class="cls-7" cx="154.96" cy="111.28" r="22.78"/><path class="cls-6" d="M140.39,109.29a27.64,27.64,0,0,0,2.12,2.63c7.08,6.93,12-.72,12-.77-4,2.15-8.55,2.56-14.15-1.86"/><path class="cls-6" d="M137,106c2.67,2.24,11,10.61,20.43,2.65A20.27,20.27,0,0,1,163,105c-5.93-1.24-13.79,8.58-26,1"/><path class="cls-6" d="M156.76,116.65l2.37-5.35a.93.93,0,0,1,.87-.59h.09a.9.9,0,0,1,.86.59l2.37,5.35a.68.68,0,0,1,.07.3.71.71,0,0,1-.71.72.76.76,0,0,1-.72-.52l-.46-1.07h-3l-.48,1.11a.74.74,0,0,1-.69.47.69.69,0,0,1-.69-.7.77.77,0,0,1,.09-.32m4.2-1.89-.94-2.24-.94,2.24Z"/><path class="cls-6" d="M167.9,116.89a.7.7,0,0,1,.42-1.25.73.73,0,0,1,.43.14,2.88,2.88,0,0,0,1.74.61c.61,0,1-.24,1-.64v0c0-.38-.23-.57-1.37-.86-1.37-.35-2.25-.73-2.25-2.08v0a2.13,2.13,0,0,1,2.38-2,4,4,0,0,1,2.16.6.69.69,0,0,1-.37,1.28.72.72,0,0,1-.38-.11,2.86,2.86,0,0,0-1.43-.46c-.57,0-.87.26-.87.59v0c0,.45.29.59,1.46.89,1.38.36,2.16.86,2.16,2v0c0,1.35-1,2.11-2.49,2.11a4.37,4.37,0,0,1-2.55-.82"/><path class="cls-6" d="M164.74,111.5a.75.75,0,0,1,1.5,0v5.42a.75.75,0,1,1-1.5,0Z"/><rect class="cls-9" x="74.23" y="39.11" width="54" height="88" rx="5.5" ry="5.5" transform="translate(24.72 -23.2) rotate(14.87)"/><line class="cls-9" x1="82.99" y1="44.64" x2="135.18" y2="58.5"/><line class="cls-9" x1="66.44" y1="106.98" x2="118.63" y2="120.84"/><circle class="cls-7" cx="91.47" cy="119.83" r="3.5" transform="translate(-47.82 177.49) rotate(-75.13)"/></g></g></svg>