<svg id="Layer_1" data-name="Layer 1" xmlns="http://www.w3.org/2000/svg" viewBox="0 0 197 69"><defs><style>.cls-1{fill:#91c039;}.cls-2{fill:#614e47;}.cls-3{fill:none;}</style></defs><title>ico</title><path class="cls-1" d="M18.4,24A148.73,148.73,0,0,0,29.71,38c37.69,36.93,63.7-3.81,64.07-4.11C72.49,45.3,48.26,47.51,18.4,24Z"/><path class="cls-1" d="M.21,6.32C14.41,18.23,58.76,62.83,109.06,20.4c10.06-8.47,18.74-15,29.88-19.46C107.34-5.65,65.51,46.62.21,6.32Z"/><path class="cls-2" d="M105.61,63.17l12.62-28.5a4.94,4.94,0,0,1,4.65-3.15h.48a4.8,4.8,0,0,1,4.59,3.15l12.64,28.5a3.78,3.78,0,0,1-3.39,5.43,4,4,0,0,1-3.81-2.74L131,60.16H115l-2.53,5.94a3.91,3.91,0,0,1-3.67,2.49,3.67,3.67,0,0,1-3.67-3.73,4.17,4.17,0,0,1,.47-1.7m22.39-10-5-11.93-5,11.93Z"/><path class="cls-2" d="M164.92,64.46a3.7,3.7,0,0,1,2.22-6.68,3.91,3.91,0,0,1,2.28.74,15.31,15.31,0,0,0,9.26,3.26c3.25,0,5.21-1.28,5.21-3.42v-.1c0-2-1.23-3-7.29-4.6-7.29-1.86-12-3.86-12-11.07v-.1c0-6.56,5.27-10.91,12.67-10.91a21.07,21.07,0,0,1,11.49,3.2,3.69,3.69,0,0,1-2,6.83,3.8,3.8,0,0,1-2-.57,15.12,15.12,0,0,0-7.62-2.43c-3,0-4.64,1.39-4.64,3.16v.09c0,2.4,1.55,3.17,7.8,4.76,7.34,1.91,11.48,4.56,11.48,10.86v.1c0,7.18-5.49,11.22-13.28,11.22a23.28,23.28,0,0,1-13.6-4.35"/><path class="cls-2" d="M148.1,35.76a4,4,0,0,1,8,0V64.61a4,4,0,0,1-8,0Z"/><rect class="cls-3" x="-30.43" y="0.36" width="191.59" height="68.44"/></svg>