<svg xmlns="http://www.w3.org/2000/svg" viewBox="0 0 236.24 194.64"><defs><style>.cls-1{isolation:isolate;}.cls-2,.cls-8{fill:none;}.cls-2{stroke:#f4f2f2;stroke-linecap:round;stroke-linejoin:round;stroke-width:3.27px;stroke-dasharray:5 9 5 9;}.cls-3{mix-blend-mode:multiply;}.cls-4{fill:#e3e3e3;}.cls-5{fill:#829836;}.cls-6,.cls-7{fill:#b2d234;}.cls-7,.cls-8{stroke:#fff;stroke-miterlimit:10;stroke-width:3px;}.cls-10,.cls-9{fill:#fff;}.cls-10{font-size:72.3px;font-family:DBHeavent-Cond, DB Heavent;}</style></defs><title>ico</title><g class="cls-1"><g id="Layer_1" data-name="Layer 1"><path class="cls-2" d="M52.3,176.81c-24.59.86-42.75-5.12-48.66-18.14-11.82-26,29.86-70.42,93.08-99.1S220.78,28.76,232.6,54.81c6.1,13.44-2,31.76-20,50.28"/><g class="cls-3"><rect class="cls-4" x="34.03" y="25.52" width="169.13" height="169.13" rx="71.31" ry="71.31"/></g><rect class="cls-5" x="34.03" y="14.94" width="169.13" height="169.13" rx="71.31" ry="71.31"/><rect class="cls-6" x="33.41" width="169.86" height="169.86" rx="71.31" ry="71.31"/><rect class="cls-7" x="63.41" y="41.04" width="54" height="88" rx="5.5" ry="5.5"/><line class="cls-8" x1="62.91" y1="52.54" x2="116.91" y2="52.54"/><line class="cls-8" x1="62.91" y1="117.04" x2="116.91" y2="117.04"/><circle class="cls-9" cx="90.41" cy="123.04" r="3.5"/><circle class="cls-9" cx="162.41" cy="86.04" r="24.5"/><path class="cls-6" d="M146.27,82.88a30.8,30.8,0,0,0,2.26,3c7.61,8,13.32-.36,13.4-.42-4.52,2.25-9.6,2.54-15.66-2.59"/><path class="cls-6" d="M142.59,79.06c2.88,2.59,11.83,12.22,22.62,3.7a22.54,22.54,0,0,1,6.37-3.86c-6.55-1.6-15.64,9-29,.17"/><path class="cls-6" d="M164.2,91.68,167,85.8a1,1,0,0,1,1-.63h.1a1,1,0,0,1,.93.69l2.44,6a.76.76,0,0,1,.07.33.79.79,0,0,1-.81.78.84.84,0,0,1-.78-.6l-.47-1.21-3.33-.11-.57,1.22a.82.82,0,0,1-.78.5.77.77,0,0,1-.74-.81.86.86,0,0,1,.11-.35m4.74-1.95-1-2.53-1.13,2.46Z"/><path class="cls-6" d="M176.57,92.35a.78.78,0,0,1,.51-1.38.81.81,0,0,1,.47.17,3.21,3.21,0,0,0,1.91.74c.68,0,1.1-.23,1.11-.68v0c0-.42-.23-.64-1.49-1-1.51-.44-2.48-.89-2.43-2.4v0a2.37,2.37,0,0,1,2.72-2.2,4.4,4.4,0,0,1,2.37.75.77.77,0,0,1-.46,1.41.8.8,0,0,1-.41-.13A3.18,3.18,0,0,0,179.3,87c-.63,0-1,.26-1,.63v0c0,.5.3.67,1.59,1,1.52.45,2.36,1,2.32,2.35v0c0,1.5-1.22,2.31-2.85,2.25a4.86,4.86,0,0,1-2.81-1"/><path class="cls-6" d="M173.26,86.24a.83.83,0,1,1,1.66.05l-.2,6a.83.83,0,1,1-1.66-.05Z"/><line class="cls-8" x1="105.91" y1="87.04" x2="131.91" y2="87.04"/><polyline class="cls-8" points="123.41 78.68 127.66 82.72 131.91 86.76 127.66 90.8 123.41 94.84"/><text class="cls-10" transform="translate(77.77 102.36)">?</text></g></g></svg>