<svg xmlns="http://www.w3.org/2000/svg" viewBox="0 0 236.24 194.64"><defs><style>.cls-1{isolation:isolate;}.cls-2{fill:none;stroke:#f4f2f2;stroke-linecap:round;stroke-linejoin:round;stroke-width:3.27px;stroke-dasharray:5 9 5 9;}.cls-3{mix-blend-mode:multiply;}.cls-4{fill:#e3e3e3;}.cls-5{fill:#829836;}.cls-6{fill:#b2d234;}.cls-7{fill:#fff;}</style></defs><title>ico</title><g class="cls-1"><g id="Layer_1" data-name="Layer 1"><path class="cls-2" d="M52.3,176.81c-24.59.86-42.75-5.12-48.66-18.14-11.82-26,29.86-70.42,93.08-99.1S220.78,28.76,232.6,54.81c6.1,13.44-2,31.76-20,50.28"/><g class="cls-3"><rect class="cls-4" x="34.03" y="25.52" width="169.13" height="169.13" rx="71.31" ry="71.31"/></g><rect class="cls-5" x="34.03" y="14.94" width="169.13" height="169.13" rx="71.31" ry="71.31"/><rect class="cls-6" x="33.41" width="169.86" height="169.86" rx="71.31" ry="71.31"/><g id="_Group_" data-name="&lt;Group&gt;"><g id="_Group_2" data-name="&lt;Group&gt;"><polygon id="_Path_" data-name="&lt;Path&gt;" class="cls-7" points="97.26 100.05 69.75 105.58 95.06 105.58 97.26 100.05"/><g id="_Group_3" data-name="&lt;Group&gt;"><path id="_Compound_Path_" data-name="&lt;Compound Path&gt;" class="cls-7" d="M160.19,98.06c-8.93,0-12.36,3.82-13.73,6.71s-3.5,8.29,5.91,8.29c6.86,0,10.54-1.39,10.54-1.39L164,109a32.72,32.72,0,0,1-8.39,1.4c-3.75,0-3.35-1.74-2.73-3.34l14.37-1.37s.33-1.74.42-2.53C167.84,101.51,168.51,98.06,160.19,98.06Zm1.3,4.5c0,.22-.07.88-.07.88l-7.83,1.78.76-1.91a4.64,4.64,0,0,1,4.53-3.06C161.76,100.25,161.52,102.33,161.49,102.56Z"/><polygon id="_Path_2" data-name="&lt;Path&gt;" class="cls-7" points="109.54 98.89 102.01 98.89 96.43 112.89 103.96 112.89 109.54 98.89"/><polygon id="_Path_3" data-name="&lt;Path&gt;" class="cls-7" points="111.36 94.32 103.83 94.32 102.89 96.68 110.42 96.68 111.36 94.32"/><polygon id="_Path_4" data-name="&lt;Path&gt;" class="cls-7" points="83.58 106.88 76.05 106.87 73.65 112.89 81.19 112.89 83.58 106.88"/><polygon id="_Path_5" data-name="&lt;Path&gt;" class="cls-7" points="147.88 100.54 142.36 101.13 137.67 112.89 130.14 112.89 135.51 99.42 149.66 98.06 147.88 100.54"/><path id="_Compound_Path_2" data-name="&lt;Compound Path&gt;" class="cls-7" d="M123,98.06c-.88,0-1.73,0-2.54.06l1.51-3.8h-7.53l-5.65,14.19c-1.41,3.54,1.92,4.55,8.16,4.55a43,43,0,0,0,10.4-1.15l3.73-9.35C132.54,99,129.28,98.06,123,98.06Zm-2.56,12.33a16.64,16.64,0,0,1-2.09.1c-2.2,0-2.31-1.25-2-2.1l3.05-7.66a12.8,12.8,0,0,1,2-.1c2.2,0,2.45,1.25,2.11,2.1Z"/><polygon id="_Path_6" data-name="&lt;Path&gt;" class="cls-7" points="81.05 94.32 77.73 102.67 85.91 101.02 87.64 96.68 99.76 96.68 100.7 94.32 81.05 94.32"/></g></g><g id="_Group_4" data-name="&lt;Group&gt;"><g id="_Group_5" data-name="&lt;Group&gt;"><g id="_Group_6" data-name="&lt;Group&gt;"><path id="_Path_7" data-name="&lt;Path&gt;" class="cls-7" d="M90.12,68.46a66,66,0,0,0,5.06,6.27c16.88,16.53,28.52-1.71,28.68-1.84C114.33,78,103.48,79,90.12,68.46Z"/></g><path id="_Path_8" data-name="&lt;Path&gt;" class="cls-7" d="M82,60.56c6.36,5.33,26.21,25.3,48.73,6.31,4.5-3.79,8.39-6.72,13.38-8.71C129.93,55.2,111.21,78.6,82,60.56Z"/></g><g id="_Group_7" data-name="&lt;Group&gt;"><g id="_Group_8" data-name="&lt;Group&gt;"><path id="_Compound_Path_3" data-name="&lt;Compound Path&gt;" class="cls-7" d="M129.16,86l5.65-12.76a2.21,2.21,0,0,1,2.08-1.41h.21a2.15,2.15,0,0,1,2.05,1.41L144.82,86a1.66,1.66,0,0,1,.17.71,1.68,1.68,0,0,1-1.69,1.72,1.81,1.81,0,0,1-1.71-1.23l-1.09-2.55h-7.14l-1.13,2.66a1.76,1.76,0,0,1-1.64,1.11A1.64,1.64,0,0,1,129,86.77a1.88,1.88,0,0,1,.21-.76m10-4.5-2.24-5.34-2.25,5.34Z"/><path id="_Path_9" data-name="&lt;Path&gt;" class="cls-7" d="M155.71,86.59a1.66,1.66,0,0,1,1-3,1.76,1.76,0,0,1,1,.33,6.85,6.85,0,0,0,4.15,1.46c1.46,0,2.33-.57,2.33-1.53v0c0-.9-.55-1.36-3.26-2.06-3.26-.83-5.37-1.73-5.37-5v0c0-2.94,2.36-4.89,5.67-4.89a9.45,9.45,0,0,1,5.14,1.43,1.65,1.65,0,0,1-.88,3.06,1.7,1.7,0,0,1-.9-.25A6.79,6.79,0,0,0,161.19,75c-1.36,0-2.08.62-2.08,1.42v0c0,1.07.69,1.42,3.49,2.13,3.29.85,5.14,2,5.14,4.86v0c0,3.21-2.46,5-5.95,5a10.42,10.42,0,0,1-6.09-1.95"/><path id="_Path_10" data-name="&lt;Path&gt;" class="cls-7" d="M148.18,73.74a1.79,1.79,0,0,1,3.58,0V86.65a1.79,1.79,0,1,1-3.57,0Z"/></g></g></g></g></g></g></svg>