<svg xmlns="http://www.w3.org/2000/svg" viewBox="0 0 236.24 194.64"><defs><style>.cls-1{isolation:isolate;}.cls-2,.cls-8{fill:none;}.cls-2{stroke:#f4f2f2;stroke-linecap:round;stroke-linejoin:round;stroke-width:3.27px;stroke-dasharray:5 9 5 9;}.cls-3{mix-blend-mode:multiply;}.cls-4{fill:#e3e3e3;}.cls-5{fill:#829836;}.cls-6,.cls-7{fill:#b2d234;}.cls-7,.cls-8{stroke:#fff;stroke-miterlimit:10;stroke-width:3px;}.cls-9{fill:#fff;}</style></defs><title>ico</title><g class="cls-1"><g id="Layer_1" data-name="Layer 1"><path class="cls-2" d="M52.3,176.81c-24.59.86-42.75-5.12-48.66-18.14-11.82-26,29.86-70.42,93.08-99.1S220.78,28.76,232.6,54.81c6.1,13.44-2,31.76-20,50.28"/><g class="cls-3"><rect class="cls-4" x="34.03" y="25.52" width="169.13" height="169.13" rx="71.31" ry="71.31"/></g><rect class="cls-5" x="34.03" y="14.94" width="169.13" height="169.13" rx="71.31" ry="71.31"/><rect class="cls-6" x="33.41" width="169.86" height="169.86" rx="71.31" ry="71.31"/><rect class="cls-7" x="86.91" y="47.04" width="54" height="88" rx="5.5" ry="5.5"/><line class="cls-8" x1="86.41" y1="58.54" x2="140.41" y2="58.54"/><line class="cls-8" x1="86.41" y1="123.04" x2="140.41" y2="123.04"/><circle class="cls-9" cx="113.91" cy="129.04" r="3.5"/><circle class="cls-8" cx="113.22" cy="80.84" r="9.29"/><path class="cls-8" d="M95.91,108.4h0c0-7.79,5.67-14.1,13.46-14.1h8.33c7.79,0,13.46,6.31,13.46,14.1V109"/><circle class="cls-9" cx="153.91" cy="81.04" r="23.5"/><path class="cls-6" d="M138.43,78a29.54,29.54,0,0,0,2.17,2.88c7.3,7.65,12.78-.34,12.85-.4-4.34,2.16-9.2,2.44-15-2.48"/><path class="cls-6" d="M134.9,74.34c2.76,2.48,11.35,11.72,21.7,3.55a21.62,21.62,0,0,1,6.11-3.71c-6.28-1.53-15,8.68-27.81.16"/><path class="cls-6" d="M155.63,86.45l2.71-5.63a1,1,0,0,1,1-.6h.1a1,1,0,0,1,.9.66l2.34,5.8a.73.73,0,0,1,.07.32.75.75,0,0,1-.78.75.81.81,0,0,1-.75-.58L160.72,86l-3.19-.1L157,87.08a.79.79,0,0,1-.75.48.74.74,0,0,1-.71-.77.82.82,0,0,1,.1-.34m4.55-1.87-.93-2.43-1.08,2.36Z"/><path class="cls-6" d="M167.49,87.1a.74.74,0,0,1,.49-1.32.77.77,0,0,1,.45.16,3.07,3.07,0,0,0,1.83.71c.65,0,1.05-.22,1.07-.65v0c0-.41-.23-.62-1.43-1-1.45-.42-2.38-.85-2.33-2.3v0a2.27,2.27,0,0,1,2.61-2.11,4.22,4.22,0,0,1,2.28.72.74.74,0,0,1-.44,1.36.77.77,0,0,1-.4-.13,3,3,0,0,0-1.51-.54c-.61,0-.94.25-1,.6v0c0,.48.29.64,1.53,1,1.46.43,2.27,1,2.23,2.25v0c0,1.44-1.17,2.21-2.73,2.16a4.66,4.66,0,0,1-2.69-1"/><path class="cls-6" d="M164.31,81.23a.8.8,0,1,1,1.6.05l-.19,5.79a.8.8,0,1,1-1.59-.05Z"/></g></g></svg>