<svg xmlns="http://www.w3.org/2000/svg" viewBox="0 0 236.24 194.64"><defs><style>.cls-1{isolation:isolate;}.cls-11,.cls-2,.cls-9{fill:none;}.cls-2{stroke:#f4f2f2;stroke-width:3.27px;stroke-dasharray:5 9 5 9;}.cls-11,.cls-2{stroke-linecap:round;stroke-linejoin:round;}.cls-3{mix-blend-mode:multiply;}.cls-4{fill:#e3e3e3;}.cls-5{fill:#829836;}.cls-10,.cls-6,.cls-8{fill:#b2d234;}.cls-7{fill:#fff;}.cls-11,.cls-8,.cls-9{stroke:#fff;}.cls-8,.cls-9{stroke-miterlimit:10;stroke-width:3px;}.cls-10{font-size:15.6px;font-family:DBHeavent-BoldCond, DB Heavent;font-weight:700;}.cls-11{stroke-width:2.54px;}</style></defs><title>ico</title><g class="cls-1"><g id="Layer_1" data-name="Layer 1"><path class="cls-2" d="M52.3,176.81c-24.59.86-42.75-5.12-48.66-18.14-11.82-26,29.86-70.42,93.08-99.1S220.78,28.76,232.6,54.81c6.1,13.44-2,31.76-20,50.28"/><g class="cls-3"><rect class="cls-4" x="34.03" y="25.52" width="169.13" height="169.13" rx="71.31" ry="71.31"/></g><rect class="cls-5" x="34.03" y="14.94" width="169.13" height="169.13" rx="71.31" ry="71.31"/><rect class="cls-6" x="33.41" width="169.86" height="169.86" rx="71.31" ry="71.31"/><path class="cls-7" d="M147.79,120.91c-2-.68-4-1.34-6-2a5.55,5.55,0,0,1-2.84-2.38,6.16,6.16,0,0,1-.8-4,2.07,2.07,0,0,1,.14-.46c1.27-3.72,2.53-7.44,3.82-11.15a5.27,5.27,0,0,1,2.33-2.75,5.88,5.88,0,0,1,4.64-.63c4,1.35,8,2.69,11.93,4.08a5.45,5.45,0,0,1,3.41,3.58,5.78,5.78,0,0,1-.08,3.89c-1.23,3.48-2.4,7-3.6,10.47a5.34,5.34,0,0,1-2.41,2.86,5.69,5.69,0,0,1-5.08.45C151.47,122.15,149.63,121.54,147.79,120.91Zm9.37-18.53-.15-.09c-2.76-.95-5.51-1.92-8.29-2.82a3.74,3.74,0,0,0-2.84.22c-1.64.81-2.11,2.4-2.54,4l5.18,1.77c1,.35,1.24.76.89,1.79l-3.5,10.24-.18.52,5.44,1.86Zm4.69,7.67c1.95-4.06,0-6.35-2.64-7l-1.85,5.41,4,1.38Zm-21.1,1.25a4,4,0,0,0,3,6l1.53-4.46Zm14,4.79-1.54,4.51a4,4,0,0,0,6-3Zm-13.33-6.86,4.5,1.54,1.23-3.59-4.5-1.54Zm15.26,1.2-1.23,3.6,4.49,1.54,1.23-3.6Z"/><path class="cls-7" d="M128.56,122a3.17,3.17,0,0,1-1.36-2,4.4,4.4,0,0,1,.13-1.81q8.06-23.67,16.18-47.33a3.11,3.11,0,0,1,3.15-2.24.67.67,0,0,0,.19,0L168,75.72a8.86,8.86,0,0,1,2.46,3.51q3.39,7,6.82,13.92a5.48,5.48,0,0,1,.28,4.41q-5.68,16.54-11.32,33.1c-.6,1.78-1.57,3-3.6,3Zm9.15-26.73-8,23.44c-.29.86-.13,1.18.73,1.48l31.84,10.9c.86.29,1.18.13,1.48-.73q5.81-17,11.62-33.93a2.3,2.3,0,0,0-.13-1.84q-3.87-7.91-7.75-15.8a2.3,2.3,0,0,0-1.38-1.22l-18.9-6.46c-.86-.29-1.18-.13-1.48.73Z"/><path class="cls-7" d="M147.79,120.91c-2-.68-4-1.34-6-2a5.55,5.55,0,0,1-2.84-2.38,6.16,6.16,0,0,1-.8-4,2.07,2.07,0,0,1,.14-.46c1.27-3.72,2.53-7.44,3.82-11.15a5.27,5.27,0,0,1,2.33-2.75,5.88,5.88,0,0,1,4.64-.63c4,1.35,8,2.69,11.93,4.08a5.45,5.45,0,0,1,3.41,3.58,5.78,5.78,0,0,1-.08,3.89c-1.23,3.48-2.4,7-3.6,10.47a5.34,5.34,0,0,1-2.41,2.86,5.69,5.69,0,0,1-5.08.45C151.47,122.15,149.63,121.54,147.79,120.91Zm9.37-18.53-.15-.09c-2.76-.95-5.51-1.92-8.29-2.82a3.74,3.74,0,0,0-2.84.22c-1.64.81-2.11,2.4-2.54,4l5.18,1.77c1,.35,1.24.76.89,1.79l-3.5,10.24-.18.52,5.44,1.86Zm4.69,7.67c1.95-4.06,0-6.35-2.64-7l-1.85,5.41,4,1.38Zm-21.1,1.25a4,4,0,0,0,3,6l1.53-4.46Zm14,4.79-1.54,4.51a4,4,0,0,0,6-3Zm-13.33-6.86,4.5,1.54,1.23-3.59-4.5-1.54Zm15.26,1.2-1.23,3.6,4.49,1.54,1.23-3.6Z"/><rect class="cls-8" x="77.7" y="42.04" width="54" height="88" rx="5.5" ry="5.5"/><line class="cls-9" x1="77.2" y1="53.54" x2="131.2" y2="53.54"/><line class="cls-9" x1="77.2" y1="118.04" x2="131.2" y2="118.04"/><circle class="cls-7" cx="104.7" cy="124.04" r="3.5"/><circle class="cls-7" cx="147.06" cy="72.37" r="14.43" transform="translate(31.8 188.9) rotate(-71.52)"/><text class="cls-10" transform="translate(135.07 73.31) rotate(18.48)">NEW</text><line class="cls-11" x1="107.44" y1="71.96" x2="94.23" y2="83.18"/><line class="cls-11" x1="115.5" y1="79.71" x2="98.4" y2="93.92"/></g></g></svg>